PathFileType	4	(X/Y/Z)	C:/Users/opensim2020/Desktop/walking_exp_matlab/subject01_walking17_run.trc																																																																																																																																																																																					
DataRate	CameraRate	NumFrames	NumMarkers	Units	OrigDataRate	OrigDataStartFrame	OrigNumFrames																																																																																																																																																																																	
100	100	6	61	mm	100	292	87																																																																																																																																																																																	
Frame#	Time	LTHI			LKNE			RELB			STRN			RWRA			LSHO			RFRM			RUPA			RSHO			RASI			RBHD			RFIN			LFHD			RFHD			CLAV			LHEE			RWRB			LASI			LBHD			LWRA			LTIB			RTHI			LWRB			LTOE			RKNE			C7			LFRM			LFIN			LUPA			LELB			RTIB			RTOE			RBAK			RANK			T10			LPSI			LANK			RHEE			RPSI			*39			*40			*41			*42			*43			*44			*45			*46			*47			*48			*49			*50			*51			*52			*53			*54			*55			*56			*57			*58			*59			*60		
		X1	Y1	Z1	X2	Y2	Z2	X3	Y3	Z3	X4	Y4	Z4	X5	Y5	Z5	X6	Y6	Z6	X7	Y7	Z7	X8	Y8	Z8	X9	Y9	Z9	X10	Y10	Z10	X11	Y11	Z11	X12	Y12	Z12	X13	Y13	Z13	X14	Y14	Z14	X15	Y15	Z15	X16	Y16	Z16	X17	Y17	Z17	X18	Y18	Z18	X19	Y19	Z19	X20	Y20	Z20	X21	Y21	Z21	X22	Y22	Z22	X23	Y23	Z23	X24	Y24	Z24	X25	Y25	Z25	X26	Y26	Z26	X27	Y27	Z27	X28	Y28	Z28	X29	Y29	Z29	X30	Y30	Z30	X31	Y31	Z31	X32	Y32	Z32	X33	Y33	Z33	X34	Y34	Z34	X35	Y35	Z35	X36	Y36	Z36	X37	Y37	Z37	X38	Y38	Z38	X39	Y39	Z39	X40	Y40	Z40	X41	Y41	Z41	X42	Y42	Z42	X43	Y43	Z43	X44	Y44	Z44	X45	Y45	Z45	X46	Y46	Z46	X47	Y47	Z47	X48	Y48	Z48	X49	Y49	Z49	X50	Y50	Z50	X51	Y51	Z51	X52	Y52	Z52	X53	Y53	Z53	X54	Y54	Z54	X55	Y55	Z55	X56	Y56	Z56	X57	Y57	Z57	X58	Y58	Z58	X59	Y59	Z59	X60	Y60	Z60	X61	Y61	Z61
																																																																																																																																																																																								
22	0.21	-943.18866	653.64899	-535.98102	-888.67871	533.43408	-516.61359	-1045.02429	1072.17175	-118.51891	-945.93805	1184.72937	-430.88535	-898.25916	1102.99597	-317.05035	-1035.2793	1379.74243	-560.43201	-960.00037	1043.1886	-209.6107	-1033.30786	1199.94507	-134.45432	-980.71448	1372.37195	-264.03958	-1062.00208	926.3493	-268.39352	-1060.09021	1594.91101	-320.35825	-828.97125	1083.74963	-354.96115	-978.8363	1658.97717	-452.6893	-957.45581	1663.7959	-342.89603	-956.66016	1345.91113	-420.72742	-831.5451	126.18461	-402.29977	-881.77661	1052.56628	-303.56595	-1048.12488	938.1936	-471.35489	-1082.10168	1593.98975	-437.46307	-1132.14441	986.50458	-713.02582	-863.37634	352.20911	-522.09454	-1217.11609	610.54034	-216.30582	-1179.81897	973.31195	-744.66901	-653.04974	91.61293	-457.63745	-1279.02112	457.06033	-239.8069	-1089.22766	1426.41345	-390.49686	-1224.58557	1090.89905	-740.5033	-1115.98572	912.84241	-750.05829	-1160.4696	1297.37781	-663.50604	-1266.68665	1203.72266	-712.461	-1451.11035	405.07068	-235.5773	-1675.12756	164.69856	-299.30667	-1160.16479	1256.97009	-291.08328	-1636.54968	310.71252	-274.66034	-1182.42419	1160.16504	-368.31415	-1222.93066	976.57263	-437.6788	-798.44135	142.94612	-461.98486	-1668.64075	350.6908	-324.30472	-1222.15967	988.31775	-299.44965	1972.98682	1023.95197	-3102.04224	2012.60876	1022.25323	-3140.71729	NaN	NaN	NaN	-976.51312	1696.98315	-360.95337	NaN	NaN	NaN	NaN	NaN	NaN	NaN	NaN	NaN	NaN	NaN	NaN	NaN	NaN	NaN	NaN	NaN	NaN	NaN	NaN	NaN	NaN	NaN	NaN	NaN	NaN	NaN	NaN	NaN	NaN	NaN	NaN	NaN	NaN	NaN	NaN	NaN	NaN	NaN	NaN	NaN	NaN	NaN	NaN	NaN	NaN	NaN	NaN	NaN	NaN	NaN	NaN	NaN	NaN
23	0.22	-901.7337	640.62506	-539.08423	-847.93988	523.34839	-517.77008	-1012.33911	1075.55481	-113.99067	-900.31409	1182.1792	-430.66513	-860.33783	1085.09705	-311.62802	-989.74884	1374.89478	-564.00012	-927.55261	1035.39172	-202.07156	-997.63586	1203.33374	-133.448	-937.01874	1370.37915	-266.17209	-1013.03125	926.03595	-269.92871	-1016.81067	1592.86328	-324.67242	-792.08936	1059.49402	-347.01724	-935.30469	1656.70825	-456.79736	-914.44678	1662.06897	-347.07217	-912.12347	1343.57312	-422.53271	-799.8783	117.93847	-400.34433	-847.14294	1034.34229	-294.9913	-1001.88525	934.5957	-472.82974	-1038.25574	1591.43042	-441.87039	-1070.87073	975.74298	-708.22662	-827.97314	342.65469	-521.2381	-1159.35168	605.58691	-214.30992	-1117.38684	959.19354	-740.17853	-623.55121	76.54431	-455.99628	-1217.65576	451.36993	-236.97513	-1044.18103	1424.28748	-394.69351	-1166.46301	1074.95923	-739.96265	-1050.97803	901.95099	-743.19531	-1111.49719	1284.31702	-668.14069	-1214.11365	1186.35413	-716.04297	-1391.36487	407.10693	-235.92136	-1625.38403	177.73941	-296.98666	-1116.38501	1256.62268	-294.38043	-1581.32153	323.02542	-276.77386	-1137.04114	1158.62488	-371.36896	-1176.24146	972.30658	-438.33813	-767.21216	132.64996	-460.35596	-1611.17017	363.10577	-327.90555	-1173.65747	986.06635	-299.86743	1973.08875	1023.50446	-3102.08325	2012.45117	1022.17731	-3140.85864	NaN	NaN	NaN	-933.55444	1695.82507	-365.3082	NaN	NaN	NaN	NaN	NaN	NaN	NaN	NaN	NaN	NaN	NaN	NaN	NaN	NaN	NaN	NaN	NaN	NaN	NaN	NaN	NaN	NaN	NaN	NaN	NaN	NaN	NaN	NaN	NaN	NaN	NaN	NaN	NaN	NaN	NaN	NaN	NaN	NaN	NaN	NaN	NaN	NaN	NaN	NaN	NaN	NaN	NaN	NaN	NaN	NaN	NaN	NaN	NaN	NaN
24	0.23	-860.48523	629.36487	-542.24994	-806.59833	515.2287	-518.10449	-980.98645	1079.1554	-109.04186	-854.48254	1178.12292	-430.12836	-824.42438	1065.29199	-304.01266	-944.14185	1368.79431	-567.54108	-896.80627	1027.198	-193.06113	-963.11963	1206.33398	-132.53961	-893.82556	1368.13367	-267.93436	-964.49878	924.83331	-271.67398	-973.62531	1589.62769	-328.91809	-756.8797	1033.49585	-335.88461	-891.89789	1653.48779	-460.87851	-871.56134	1659.26514	-351.06778	-867.2627	1339.94897	-424.01083	-776.00494	108.09869	-398.03287	-814.52637	1014.83899	-283.9317	-956.4884	930.19196	-474.47034	-994.51868	1587.70068	-446.20044	-1007.20367	964.2204	-702.49335	-795.40314	331.99011	-520.26257	-1100.90735	600.00812	-212.45184	-1052.37732	944.55487	-734.95093	-602.61261	57.65532	-453.34692	-1154.32788	444.47791	-234.42317	-999.41162	1421.10474	-399.073	-1106.39233	1057.63293	-739.02637	-983.27533	890.95367	-735.22021	-1062.69458	1270.31592	-673.01471	-1159.79785	1166.96814	-719.42542	-1328.93372	407.46817	-235.88313	-1569.96667	188.72667	-293.79776	-1072.79102	1255.31323	-297.84283	-1521.93835	332.8732	-278.14685	-1092.01331	1155.94775	-374.90329	-1130.27832	966.33032	-438.99316	-743.66016	120.47898	-458.32104	-1550.88135	373.31091	-331.09607	-1125.78528	981.81464	-300.15656	1972.92358	1024.02905	-3102.16113	2012.48022	1022.21259	-3140.90771	NaN	NaN	NaN	-890.66107	1693.6333	-369.64536	NaN	NaN	NaN	NaN	NaN	NaN	NaN	NaN	NaN	NaN	NaN	NaN	NaN	NaN	NaN	NaN	NaN	NaN	NaN	NaN	NaN	NaN	NaN	NaN	NaN	NaN	NaN	NaN	NaN	NaN	NaN	NaN	NaN	NaN	NaN	NaN	NaN	NaN	NaN	NaN	NaN	NaN	NaN	NaN	NaN	NaN	NaN	NaN	NaN	NaN	NaN	NaN	NaN	NaN
25	0.24	-819.23187	623.40173	-542.23328	-765.58405	508.98575	-517.54767	-950.27136	1082.82837	-104.71575	-808.6571	1172.729	-429.09299	-790.54541	1044.18103	-294.44415	-898.3147	1361.52124	-571.07001	-867.0575	1019.11676	-182.57126	-929.52722	1208.94873	-131.93294	-851.55298	1364.82825	-269.47415	-916.56335	922.82471	-273.42371	-930.60535	1585.17224	-333.04895	-724.67773	1006.43188	-321.40347	-848.62402	1649.26746	-465.00104	-828.83691	1655.27795	-355.03085	-822.54718	1334.73694	-425.00778	-758.69446	96.88537	-396.3382	-784.01422	994.53711	-270.68481	-911.05127	925.10846	-477.08588	-950.96204	1582.84753	-450.45569	-941.40881	952.6286	-696.04181	-764.784	320.98395	-519.25842	-1041.68579	593.88013	-210.8501	-984.79675	929.52197	-728.91534	-588.07251	36.74983	-449.23993	-1089.07874	436.62988	-231.89772	-954.78235	1416.58044	-403.69498	-1044.56653	1039.30981	-737.38635	-913.05542	880.0722	-726.23999	-1013.02032	1254.9209	-677.38379	-1103.72974	1145.94006	-722.55853	-1264.34302	406.27509	-235.41754	-1508.9552	198.05141	-289.97577	-1029.35986	1252.6875	-301.86203	-1459.28333	341.13455	-279.23709	-1047.20361	1152.01099	-378.72498	-1084.82813	958.87219	-439.53372	-725.5426	107.13611	-456.49792	-1488.20947	381.23892	-333.7186	-1079.04504	976.21045	-300.09415	1973.05408	1024.01892	-3102.03076	2012.50098	1022.07257	-3140.78101	NaN	NaN	NaN	-848.04565	1690.15979	-374.04141	NaN	NaN	NaN	NaN	NaN	NaN	NaN	NaN	NaN	NaN	NaN	NaN	NaN	NaN	NaN	NaN	NaN	NaN	NaN	NaN	NaN	NaN	NaN	NaN	NaN	NaN	NaN	NaN	NaN	NaN	NaN	NaN	NaN	NaN	NaN	NaN	NaN	NaN	NaN	NaN	NaN	NaN	NaN	NaN	NaN	NaN	NaN	NaN	NaN	NaN	NaN	NaN	NaN	NaN
26	0.25	-777.79376	618.49396	-539.6637	-726.24304	501.50275	-517.11542	-920.08862	1086.59827	-100.69199	-762.62872	1166.18616	-427.6134	-758.55103	1022.30017	-283.04791	-852.22351	1353.12378	-574.60547	-839.18005	1011.19592	-171.76775	-896.25409	1211.26404	-131.70805	-809.57465	1361.0498	-270.84225	-869.30481	919.64661	-275.44287	-887.60693	1579.64185	-337.13846	-694.27954	978.58337	-303.828	-805.63202	1643.75403	-468.86624	-786.06543	1650.25024	-358.88272	-777.99561	1328.28101	-426.2233	-752.83569	79.36304	-396.33972	-755.87006	973.91052	-255.52983	-865.82745	919.50519	-480.1828	-907.5191	1576.90527	-454.58722	-873.71991	941.25214	-688.79449	-736.39423	309.23889	-518.16797	-981.20166	586.8299	-209.68916	-914.84601	914.42773	-721.98004	-565.51355	30.7944	-448.62433	-1021.48572	428.17276	-229.6261	-910.44586	1410.82605	-408.47513	-980.66992	1020.1778	-735.32306	-839.79443	870.50098	-715.7851	-962.65558	1238.28931	-681.06781	-1046.10181	1123.51904	-725.25922	-1197.04089	403.64114	-234.53107	-1443.63757	205.40521	-285.34302	-986.15259	1248.32056	-306.62558	-1393.797	347.89297	-279.93982	-1002.38293	1146.58655	-382.55667	-1040.16895	950.51508	-439.90216	-713.6402	93.9201	-451.58936	-1422.87488	387.40173	-335.35599	-1033.05518	968.78131	-299.86935	1973.13513	1023.54156	-3101.98804	2012.50195	1021.9718	-3140.80591	NaN	NaN	NaN	-805.41034	1685.64551	-378.41525	NaN	NaN	NaN	NaN	NaN	NaN	NaN	NaN	NaN	NaN	NaN	NaN	NaN	NaN	NaN	NaN	NaN	NaN	NaN	NaN	NaN	NaN	NaN	NaN	NaN	NaN	NaN	NaN	NaN	NaN	NaN	NaN	NaN	NaN	NaN	NaN	NaN	NaN	NaN	NaN	NaN	NaN	NaN	NaN	NaN	NaN	NaN	NaN	NaN	NaN	NaN	NaN	NaN	NaN
27	0.26	-735.20026	614.48145	-538.995	-688.66846	490.78644	-516.96088	-889.88843	1090.09399	-97.4124	-716.52069	1158.88892	-425.92825	-728.47363	1000.24384	-269.84653	-805.56616	1343.78796	-578.15186	-812.17151	1003.77618	-160.44179	-863.31543	1213.27136	-132.24925	-767.61908	1356.67358	-271.94775	-822.80475	914.97437	-278.2139	-844.54504	1573.27319	-341.22543	-666.03705	951.13397	-283.18857	-762.57709	1637.72314	-472.83392	-743.45978	1644.55786	-362.65771	-732.16046	1320.63538	-427.095	-753.07904	67.19093	-394.5383	-729.27649	953.96063	-238.45274	-822.76892	913.27106	-481.77835	-864.06799	1570.09534	-458.75912	-804.30054	930.44897	-680.59094	-709.28992	296.69666	-515.7478	-919.0025	579.0976	-208.57199	-842.69043	899.33508	-714.27753	-561.78717	30.27	-447.31155	-951.20221	419.16577	-228.11877	-866.29797	1403.95239	-413.40256	-914.69818	1000.59692	-732.44281	-764.95508	861.76367	-704.70264	-911.383	1220.56348	-684.03888	-986.61365	1099.92786	-727.46954	-1126.58728	399.37491	-233.18842	-1374.00073	210.82111	-279.92249	-942.99127	1241.86328	-312.14029	-1324.37866	352.2074	-279.86603	-957.84644	1139.52808	-386.16321	-996.43573	941.45416	-440.39407	-708.66272	82.17335	-447.07956	-1354.10437	391.49271	-336.11285	-988.31873	959.82147	-299.31351	1973.1897	1023.50507	-3102.02979	2012.56982	1021.93317	-3140.63184	NaN	NaN	NaN	-762.65814	1680.18665	-382.61392	NaN	NaN	NaN	NaN	NaN	NaN	NaN	NaN	NaN	NaN	NaN	NaN	NaN	NaN	NaN	NaN	NaN	NaN	NaN	NaN	NaN	NaN	NaN	NaN	NaN	NaN	NaN	NaN	NaN	NaN	NaN	NaN	NaN	NaN	NaN	NaN	NaN	NaN	NaN	NaN	NaN	NaN	NaN	NaN	NaN	NaN	NaN	NaN	NaN	NaN	NaN	NaN	NaN	NaN
